<svg xmlns="http://www.w3.org/2000/svg" viewBox="0 0 960 560" role="img" aria-label="GitHub language mix">
<rect width="100%" height="100%" rx="12" fill="#ffffff"/>
<text x="40" y="52" fill="#24292f" font-family="system-ui, sans-serif" font-size="27" font-weight="700">GitHub language mix</text>
<g font-family="system-ui, sans-serif" font-size="18"><polygon points="480.0,261.0 513.8,280.5 513.8,319.5 480.0,339.0 446.2,319.5 446.2,280.5" fill="none" stroke="#d0d7de" stroke-width="1"/><polygon points="480.0,222.0 547.5,261.0 547.5,339.0 480.0,378.0 412.5,339.0 412.5,261.0" fill="none" stroke="#d0d7de" stroke-width="1"/><polygon points="480.0,183.0 581.3,241.5 581.3,358.5 480.0,417.0 378.7,358.5 378.7,241.5" fill="none" stroke="#d0d7de" stroke-width="1"/><polygon points="480.0,144.0 615.1,222.0 615.1,378.0 480.0,456.0 344.9,378.0 344.9,222.0" fill="none" stroke="#d0d7de" stroke-width="1"/><polygon points="480.0,105.0 648.9,202.5 648.9,397.5 480.0,495.0 311.1,397.5 311.1,202.5" fill="none" stroke="#d0d7de" stroke-width="1"/><line x1="480" y1="300" x2="480.0" y2="105.0" stroke="#d0d7de"/><line x1="480" y1="300" x2="648.9" y2="202.5" stroke="#d0d7de"/><line x1="480" y1="300" x2="648.9" y2="397.5" stroke="#d0d7de"/><line x1="480" y1="300" x2="480.0" y2="495.0" stroke="#d0d7de"/><line x1="480" y1="300" x2="311.1" y2="397.5" stroke="#d0d7de"/><line x1="480" y1="300" x2="311.1" y2="202.5" stroke="#d0d7de"/>
<polygon points="480.0,215.4 517.7,278.3 512.1,318.5 480.0,325.9 477.6,301.4 479.0,299.4" fill="#39D353" fill-opacity="0.22" stroke="#39D353" stroke-width="3" stroke-linejoin="round"/>
<text x="480.0" y="65.0" text-anchor="middle" dominant-baseline="middle" fill="#24292f">TypeScript</text><text x="683.5" y="182.5" text-anchor="start" dominant-baseline="middle" fill="#24292f">Java</text><text x="683.5" y="417.5" text-anchor="start" dominant-baseline="middle" fill="#24292f">Python</text><text x="480.0" y="535.0" text-anchor="middle" dominant-baseline="middle" fill="#24292f">JavaScript</text><text x="276.5" y="417.5" text-anchor="end" dominant-baseline="middle" fill="#24292f">CSS</text><text x="276.5" y="182.5" text-anchor="end" dominant-baseline="middle" fill="#24292f">HTML</text></g>
<text x="40" y="525" fill="#57606a" font-family="system-ui, sans-serif" font-size="15">Share of detected repository language bytes</text>
</svg>